<svg xmlns="http://www.w3.org/2000/svg" xmlns:xlink="http://www.w3.org/1999/xlink" viewBox="0 0 3000 3000" width="3000" height="3000" preserveAspectRatio="xMidYMid meet" style="width: 100%; height: 100%; transform: translate3d(0px, 0px, 0px); content-visibility: visible;"><defs><clipPath id="__lottie_element_2875"><rect width="3000" height="3000" x="0" y="0"></rect></clipPath></defs><g clip-path="url(#__lottie_element_2875)"><g transform="matrix(1.0898202657699585,0,0,1.0898202657699585,1500,1500)" opacity="1" style="display: block;"><g opacity="1" transform="matrix(1,0,0,1,0,0)"><path fill="rgb(236,28,36)" fill-opacity="1" d=" M732,0 C732,404.2720031738281 404.2720031738281,732 0,732 C-404.2720031738281,732 -732,404.2720031738281 -732,0 C-732,-404.2720031738281 -404.2720031738281,-732 0,-732 C404.2720031738281,-732 732,-404.2720031738281 732,0z"></path></g></g><g transform="matrix(1,0,0,1,1500,1500)" opacity="1" style="display: block;"><g opacity="1" transform="matrix(1,0,0,1,0,0)"><path stroke-linecap="round" stroke-linejoin="miter" fill-opacity="0" stroke-miterlimit="10" stroke="rgb(236,28,36)" stroke-opacity="1" stroke-width="90" d=" M0,855 C-472.2030029296875,855 -855,472.2030029296875 -855,0 C-855,-472.2030029296875 -472.2030029296875,-855 0,-855 C472.2030029296875,-855 855,-472.2030029296875 855,0 C855,0 855,0 855,0 C855,472.2030029296875 472.2030029296875,855 0,855 C0,855 0,855 0,855"></path></g></g><g transform="matrix(1,0,0,1,-534.6400146484375,1500)" opacity="1" style="display: block;"><g opacity="1" transform="matrix(1,0,0,1,0,0)"><path stroke-linecap="round" stroke-linejoin="round" fill-opacity="0" stroke="rgb(255,255,255)" stroke-opacity="1" stroke-width="150" d=" M1684.35498046875,-350.2850036621094 C1684.35498046875,-350.2850036621094 1721.1500244140625,-313.489990234375 1777.875,-256.7650146484375"></path></g><g opacity="1" transform="matrix(1,0,0,1,0,0)"><path stroke-linecap="round" stroke-linejoin="round" fill-opacity="0" stroke="rgb(255,255,255)" stroke-opacity="1" stroke-width="150" d=" M2384.925048828125,-350.2850036621094 C2384.925048828125,-350.2850036621094 2348.1298828125,-313.489990234375 2291.405029296875,-256.7650146484375"></path></g></g></g></svg>